<svg xmlns="http://www.w3.org/2000/svg" width="21.662" height="17.6"
    viewBox="0 0 21.662 17.6">
    <g fill="#b4adad" fill-rule="nonzero" stroke="none" stroke-width="1" stroke-linecap="butt">
        <g transform="translate(0 48)">
            <path
                d="M16,3c-7.17,0 -13,5.83 -13,13v18c0,7.17 5.83,13 13,13h18c7.17,0 13,-5.83 13,-13v-18c0,-7.17 -5.83,-13 -13,-13zM37,11c1.1,0 2,0.9 2,2c0,1.1 -0.9,2 -2,2c-1.1,0 -2,-0.9 -2,-2c0,-1.1 0.9,-2 2,-2zM25,14c6.07,0 11,4.93 11,11c0,6.07 -4.93,11 -11,11c-6.07,0 -11,-4.93 -11,-11c0,-6.07 4.93,-11 11,-11zM25,16c-4.96,0 -9,4.04 -9,9c0,4.96 4.04,9 9,9c4.96,0 9,-4.04 9,-9c0,-4.96 -4.04,-9 -9,-9z"></path>
        </g>
    </g>
</svg>